<svg width="1080" height="1080" viewBox="0 0 1080 1080" fill="none" xmlns="http://www.w3.org/2000/svg">
<path d="M585.126 776.543L585.595 776.32L709.67 864.149L612.737 909.846C599.533 917.884 583.885 920.964 568.699 918.568C556.504 916.75 544.951 911.485 535.504 903.305L169.641 644.321H398.338L585.126 776.543Z" fill="#DC143C"/>
<path d="M709.762 717.789C775.42 686.838 853.467 715.554 884.084 781.93L732.551 853.364L608.475 765.535L709.762 717.789Z" fill="#DC143C"/>
<path d="M510.811 326.402H510.532L401.02 437.113H170.145L169.64 436.602L411.109 192.489C426.115 173.101 449.475 160.64 475.714 160.64H674.781L510.811 326.402Z" fill="#DC143C"/>
<path d="M884.27 160.64C884.27 252.188 810.858 326.402 720.301 326.402H541.73L705.699 160.64H884.27Z" fill="#DC143C"/>
</svg>
