<svg width="759" height="759" viewBox="0 0 759 759" fill="none" xmlns="http://www.w3.org/2000/svg">
<g clip-path="url(#clip0_158_285)">
<path d="M437.531 615.903L438.001 615.68L562.075 703.509L465.142 749.206C451.938 757.244 436.29 760.324 421.105 757.928C408.91 756.11 397.356 750.845 387.909 742.665L22.0463 483.681H250.743L437.531 615.903Z" fill="#DC143C"/>
<path d="M562.167 557.149C627.825 526.197 705.872 554.914 736.489 621.29L584.956 692.724L460.88 604.895L562.167 557.149Z" fill="#DC143C"/>
<path d="M363.217 165.762H362.938L253.425 276.473H22.5507L22.0449 275.962L263.514 31.8494C278.521 12.4612 301.881 0 328.12 0H527.187L363.217 165.762Z" fill="#DC143C"/>
<path d="M736.675 0C736.675 91.5479 663.264 165.762 572.706 165.762H394.135L558.104 0H736.675Z" fill="#DC143C"/>
</g>
<defs>
<clipPath id="clip0_158_285">
<rect width="758.72" height="758.72" fill="white"/>
</clipPath>
</defs>
</svg>
